HIERARCHY
ROOT joint_0
{
	OFFSET 0.000000 0.000000 0.000000
	CHANNELS 6 Xposition Yposition Zposition Zrotation Yrotation Xrotation 
	JOINT joint_1
	{
		OFFSET 6.579712 -2.778931 100.531982
		CHANNELS 3 Zrotation Yrotation Xrotation
		JOINT joint_2
		{
			OFFSET -3.313232 -1.302856 91.974976
			CHANNELS 3 Zrotation Yrotation Xrotation
			JOINT joint_3
			{
				OFFSET -3.421509 -1.641846 91.864014
				CHANNELS 3 Zrotation Yrotation Xrotation
				JOINT joint_4
				{
					OFFSET 7.697388 -4.642578 123.278931
					CHANNELS 3 Zrotation Yrotation Xrotation
					JOINT joint_5
					{
						OFFSET 24.842529 -5.941528 79.695068
						CHANNELS 3 Zrotation Yrotation Xrotation
						End Site
						{
							OFFSET 0.000000 0.000000 0.000000
						}
					}
				}
				JOINT joint_6
				{
					OFFSET -0.159668 -29.112976 68.364014
					CHANNELS 3 Zrotation Yrotation Xrotation
					JOINT joint_7
					{
						OFFSET -18.356079 -115.987061 -20.069092
						CHANNELS 3 Zrotation Yrotation Xrotation
						JOINT joint_8
						{
							OFFSET 31.719482 -11.733276 -267.170898
							CHANNELS 3 Zrotation Yrotation Xrotation
							JOINT joint_9
							{
								OFFSET 29.329956 -5.879517 -234.654053
								CHANNELS 3 Zrotation Yrotation Xrotation
								End Site
								{
									OFFSET 0.000000 0.000000 0.000000
								}
							}
						}
					}
				}
				JOINT joint_10
				{
					OFFSET 8.802979 23.897949 69.798950
					CHANNELS 3 Zrotation Yrotation Xrotation
					JOINT joint_11
					{
						OFFSET 21.159058 115.524292 -19.981934
						CHANNELS 3 Zrotation Yrotation Xrotation
						JOINT joint_12
						{
							OFFSET 18.809204 5.403442 -268.593018
							CHANNELS 3 Zrotation Yrotation Xrotation
							JOINT joint_13
							{
								OFFSET 20.807861 0.421265 -235.639038
								CHANNELS 3 Zrotation Yrotation Xrotation
								End Site
								{
									OFFSET 0.000000 0.000000 0.000000
								}
							}
						}
					}
				}
			}
		}
	}
	JOINT joint_14
	{
		OFFSET -9.713379 -79.513916 -99.348022
		CHANNELS 3 Zrotation Yrotation Xrotation
		JOINT joint_15
		{
			OFFSET -40.607788 -6.518372 -502.938019
			CHANNELS 3 Zrotation Yrotation Xrotation
			JOINT joint_16
			{
				OFFSET -19.807617 -7.437378 -399.590012
				CHANNELS 3 Zrotation Yrotation Xrotation
				JOINT joint_17
				{
					OFFSET 171.701660 -44.751282 -77.782000
					CHANNELS 3 Zrotation Yrotation Xrotation
					End Site
					{
						OFFSET 0.000000 0.000000 0.000000
					}
				}
			}
		}
	}
	JOINT joint_18
	{
		OFFSET 17.854858 79.618652 -98.128052
		CHANNELS 3 Zrotation Yrotation Xrotation
		JOINT joint_19
		{
			OFFSET -24.848877 16.861816 -503.722992
			CHANNELS 3 Zrotation Yrotation Xrotation
			JOINT joint_20
			{
				OFFSET -30.162476 14.470093 -398.750008
				CHANNELS 3 Zrotation Yrotation Xrotation
				JOINT joint_21
				{
					OFFSET 176.096680 -10.987549 -80.021000
					CHANNELS 3 Zrotation Yrotation Xrotation
					End Site
					{
						OFFSET 0.000000 0.000000 0.000000
					}
				}
			}
		}
	}
}
MOTION
Frames: 10
Frame Time: 0.016667
-1137.450439 957.937683 1098.649048 40.436766 0.859898 -0.834001 0.108420 -1.606380 0.599820 0.175930 0.250480 -0.140924 0.172480 -0.334017 0.074946 0.786796 0.939205 -2.979638 0.000000 0.000000 0.000000 -0.661119 1.758650 -0.265410 0.080583 1.685713 -0.299176 0.000503 -0.852695 -0.713451 0.000000 0.000000 0.000000 0.150388 0.341700 1.331989 -0.505646 0.858048 -1.888191 -0.182274 -2.136537 2.970001 0.000000 0.000000 0.000000 3.817508 -1.676630 0.630860 3.912569 0.657159 0.420181 4.018638 -1.749594 1.374572 0.000000 0.000000 0.000000 -5.663756 -0.393929 0.547229 -5.570312 0.210659 -0.783425 -5.486109 -1.048521 -2.556230 0.000000 0.000000 0.000000 
-1137.474976 957.885315 1098.651978 40.434565 0.857464 -0.835276 0.107891 -1.588730 0.609222 0.173962 0.247572 -0.144388 0.170765 -0.329708 0.077150 0.786333 0.940669 -2.977207 0.000000 0.000000 0.000000 -0.660555 1.754158 -0.258555 0.079503 1.683566 -0.307497 0.000768 -0.856060 -0.715070 0.000000 0.000000 0.000000 0.154094 0.336592 1.323754 -0.507110 0.853366 -1.902394 -0.184095 -2.145655 2.964287 0.000000 0.000000 0.000000 3.817192 -1.679199 0.632568 3.912412 0.660701 0.422367 4.019025 -1.749991 1.374603 0.000000 0.000000 0.000000 -5.663645 -0.396058 0.548399 -5.570047 0.216125 -0.780664 -5.486132 -1.051108 -2.556395 0.000000 0.000000 0.000000 
-1137.489990 957.819763 1098.659058 40.432022 0.858412 -0.835371 0.111439 -1.575190 0.608658 0.176614 0.245569 -0.143284 0.173414 -0.327687 0.077008 0.785307 0.945041 -2.971763 0.000000 0.000000 0.000000 -0.674095 1.753027 -0.251347 0.079140 1.681330 -0.309273 0.000941 -0.858332 -0.716343 0.000000 0.000000 0.000000 0.143799 0.332081 1.322650 -0.509426 0.852443 -1.914491 -0.186953 -2.159668 2.954200 0.000000 0.000000 0.000000 3.816822 -1.685501 0.633684 3.912483 0.663912 0.424206 4.019504 -1.748575 1.375157 0.000000 0.000000 0.000000 -5.663246 -0.402516 0.549203 -5.569470 0.222656 -0.777169 -5.485868 -1.053289 -2.556393 0.000000 0.000000 0.000000 
-1137.498413 957.746643 1098.668945 40.429115 0.861913 -0.834900 0.117444 -1.564850 0.603385 0.182003 0.243327 -0.141111 0.178719 -0.325697 0.075548 0.783771 0.950207 -2.964143 0.000000 0.000000 0.000000 -0.695270 1.753717 -0.242787 0.079195 1.679255 -0.307709 0.001139 -0.860606 -0.717434 0.000000 0.000000 0.000000 0.125338 0.327748 1.326076 -0.512245 0.853403 -1.924294 -0.190560 -2.177152 2.940850 0.000000 0.000000 0.000000 3.816515 -1.694622 0.634783 3.912897 0.666931 0.425334 4.020149 -1.745825 1.376146 0.000000 0.000000 0.000000 -5.662769 -0.412101 0.550327 -5.568729 0.229828 -0.773806 -5.485500 -1.055451 -2.556335 0.000000 0.000000 0.000000 
-1137.498413 957.675232 1098.677002 40.425664 0.866333 -0.834600 0.123150 -1.558434 0.596875 0.187389 0.241971 -0.138276 0.183989 -0.324017 0.073912 0.782553 0.956119 -2.957729 0.000000 0.000000 0.000000 -0.715999 1.754982 -0.233941 0.079252 1.677948 -0.306428 0.001310 -0.862423 -0.718241 0.000000 0.000000 0.000000 0.108678 0.324381 1.327813 -0.514515 0.854157 -1.930845 -0.193440 -2.191276 2.931337 0.000000 0.000000 0.000000 3.816303 -1.703419 0.636591 3.913516 0.667919 0.425579 4.020716 -1.742197 1.377331 0.000000 0.000000 0.000000 -5.662154 -0.421459 0.552538 -5.567784 0.235144 -0.771613 -5.484834 -1.056015 -2.556047 0.000000 0.000000 0.000000 
-1137.485840 957.606995 1098.682007 40.420527 0.871052 -0.834819 0.127619 -1.555901 0.589931 0.191793 0.241331 -0.135609 0.188238 -0.324726 0.072233 0.782106 0.965266 -2.954099 0.000000 0.000000 0.000000 -0.730980 1.757230 -0.224220 0.079278 1.678917 -0.305799 0.001281 -0.862747 -0.719002 0.000000 0.000000 0.000000 0.098955 0.323841 1.326321 -0.516243 0.855013 -1.932251 -0.195503 -2.201771 2.926986 0.000000 0.000000 0.000000 3.816814 -1.710718 0.639896 3.914979 0.665877 0.424267 4.021658 -1.737245 1.379038 0.000000 0.000000 0.000000 -5.661537 -0.429135 0.556608 -5.566750 0.237682 -0.770851 -5.483939 -1.055121 -2.555568 0.000000 0.000000 0.000000 
-1137.465454 957.541077 1098.683960 40.413985 0.876584 -0.835038 0.131940 -1.556971 0.581793 0.196328 0.241112 -0.132252 0.192579 -0.324718 0.069664 0.781916 0.973961 -2.951689 0.000000 0.000000 0.000000 -0.744521 1.759701 -0.214332 0.079327 1.680324 -0.304626 0.001097 -0.862205 -0.720044 0.000000 0.000000 0.000000 0.091105 0.323906 1.324370 -0.517499 0.855617 -1.931005 -0.196964 -2.209629 2.925927 0.000000 0.000000 0.000000 3.817724 -1.717598 0.643524 3.916896 0.661780 0.422307 4.022812 -1.731901 1.380942 0.000000 0.000000 0.000000 -5.660618 -0.436423 0.561557 -5.565355 0.238523 -0.771296 -5.482632 -1.053363 -2.554852 0.000000 0.000000 0.000000 
-1137.452026 957.472168 1098.685059 40.407451 0.881021 -0.835102 0.136252 -1.553798 0.575035 0.200521 0.240786 -0.129942 0.196657 -0.324430 0.068327 0.781926 0.978600 -2.950962 0.000000 0.000000 0.000000 -0.757625 1.760327 -0.204108 0.079039 1.680555 -0.306817 0.001112 -0.863124 -0.721095 0.000000 0.000000 0.000000 0.085187 0.321968 1.320207 -0.517790 0.853420 -1.928497 -0.197565 -2.212989 2.927053 0.000000 0.000000 0.000000 3.818628 -1.723397 0.646733 3.918655 0.657042 0.420770 4.023836 -1.726141 1.382890 0.000000 0.000000 0.000000 -5.659493 -0.443275 0.566036 -5.563764 0.240110 -0.771762 -5.481205 -1.052185 -2.554119 0.000000 0.000000 0.000000 
-1137.452759 957.401367 1098.682007 40.399870 0.883511 -0.834315 0.140800 -1.542232 0.570974 0.204286 0.237670 -0.129473 0.200493 -0.320611 0.068786 0.782434 0.974183 -2.954376 0.000000 0.000000 0.000000 -0.769121 1.757618 -0.195101 0.078389 1.678136 -0.313006 0.001582 -0.867376 -0.722120 0.000000 0.000000 0.000000 0.081637 0.315894 1.313143 -0.516784 0.846509 -1.926554 -0.196855 -2.210063 2.933402 0.000000 0.000000 0.000000 3.820228 -1.727255 0.648210 3.920766 0.651352 0.419953 4.025305 -1.721570 1.384714 0.000000 0.000000 0.000000 -5.657750 -0.449276 0.568638 -5.561644 0.243347 -0.772093 -5.479432 -1.053026 -2.553358 0.000000 0.000000 0.000000 
-1137.461182 957.328247 1098.677002 40.391790 0.884959 -0.833227 0.144921 -1.526491 0.567946 0.207352 0.234579 -0.129024 0.203626 -0.316403 0.068925 0.782958 0.965230 -2.958494 0.000000 0.000000 0.000000 -0.777826 1.752740 -0.185478 0.077430 1.674608 -0.322168 0.002237 -0.873005 -0.723108 0.000000 0.000000 0.000000 0.081754 0.307755 1.305499 -0.514873 0.836894 -1.924179 -0.195359 -2.202982 2.941625 0.000000 0.000000 0.000000 3.821883 -1.730061 0.649020 3.922771 0.644937 0.419538 4.026691 -1.716825 1.386538 0.000000 0.000000 0.000000 -5.655672 -0.454727 0.570566 -5.559216 0.247079 -0.772527 -5.477428 -1.054713 -2.552546 0.000000 0.000000 0.000000 
